<svg width="330" height="104" viewBox="0 0 330 104" fill="none" xmlns="http://www.w3.org/2000/svg">
<path fill-rule="evenodd" clip-rule="evenodd" d="M268.001 77.3265L279.62 77.3261L298.103 50.036C301.034 54.3982 303.966 58.7606 306.897 63.1228L307.081 63.3983C308.475 65.4754 314.339 69.5695 320.477 65.5795L304.023 41.2954L324.085 11.6748L312.087 11.675L298.085 32.5271L283.964 11.6787L272.346 11.6783L292.215 41.2677L268.001 77.3265Z" fill="#196A7B"/>
<path fill-rule="evenodd" clip-rule="evenodd" d="M69.6236 48.8184H53.8271V51.5396H68.9454L69.6236 48.8184Z" fill="#196A7B"/>
<path fill-rule="evenodd" clip-rule="evenodd" d="M89.8606 91.5202H86.1195H83.1409V86.9034H86.1195V80.4433H84.2506V78.6795H86.1195V76.2574H84.2506V74.4936H86.1195V72.345H84.9282V70.581H91.1087V72.345H89.8606V74.4936H91.7274V76.2574H89.8606V78.6795H91.7274V80.4433H89.8606V83.4284H91.5188V82.2611H92.0994V85.1595H91.5188V83.9919H89.8606V86.9034H92.8405V91.5202H89.8606ZM23.5323 91.4556H0.497314L6.25775 0.0527344H17.772L23.5323 91.4556ZM71.5134 41.2477L69.6235 48.8183L68.9453 51.5396L67.835 55.993H123.378L124.501 41.2477H71.5134ZM123.185 58.5312H92.7436L104.607 91.2156H120.695L120.855 89.1105H115.403V91.0513H113.163V88.9948C109.478 88.3602 106.672 85.1411 106.672 81.2782C106.672 76.9522 110.177 73.4459 114.5 73.4459H116.533L115.936 71.3247H121.676L121.079 73.4459H122.048L123.185 58.5312ZM77.789 80.262V73.802H79.9501V72.0381H77.789V69.616H79.9501V67.8522H77.789V65.4303H79.0937V63.6663H70.9018V65.4303H72.2048V67.8522H70.0403V69.616H72.2048V72.0381H70.0403V73.802H72.2048V76.7871H71.3644V75.6197H70.7838V78.5182H71.3644V77.3505H72.2048V80.262H70.1445V91.5202H79.8441V80.262H77.789Z" fill="white"/>
<path fill-rule="evenodd" clip-rule="evenodd" d="M252.146 11.6816L252.369 11.6746C257.709 11.7683 260.092 12.3239 262.575 12.9751C265.059 13.6263 266.807 14.3039 268.031 15.2288V25.583C266.287 24.4278 264.078 23.329 261.518 22.2837V21.3871C261.502 16.1387 257.361 11.8515 252.146 11.6816Z" fill="#669CA7"/>
<path fill-rule="evenodd" clip-rule="evenodd" d="M261.517 67.1047L262.185 66.8638C264.82 65.8609 266.305 64.7695 267.975 63.469V73.7313C267.752 73.9615 267.27 74.2309 265.303 75.1487C263.373 76.063 262.408 76.2329 261.443 76.4314C258.77 76.9771 255.95 77.3775 252.869 77.3173L252.275 77.2996C257.397 77.0551 261.517 72.7992 261.517 67.5972V67.1047Z" fill="#C5D9DD"/>
<path fill-rule="evenodd" clip-rule="evenodd" d="M251.796 11.6865L252.098 11.6799C257.323 11.8289 261.518 16.1241 261.518 21.3918V22.2838L261.362 22.2174C258.732 21.1542 255.81 20.6226 252.592 20.6226L251.796 20.648C247.837 20.7599 244.209 21.8189 240.901 23.812C237.375 25.9383 234.546 28.8025 232.411 32.4053C230.277 36.0078 229.209 40.0533 229.209 44.5419C229.209 49.0894 230.183 53.1643 232.135 56.7671C234.083 60.3696 236.849 63.2045 240.437 65.2717C243.711 67.1577 247.501 68.1833 251.796 68.3381L253.056 68.3722C256.23 68.3722 259.053 67.9514 261.518 67.1047V67.6C261.518 72.8017 257.428 77.0553 252.297 77.3018L251.796 77.2863C246.978 77.1366 242.631 76.2584 238.769 74.6621C234.624 72.9492 231.083 70.602 228.142 67.6194C225.204 64.6368 222.964 61.2112 221.417 57.3428C219.87 53.4744 219.096 49.3553 219.096 44.9849C219.096 40.142 219.917 35.6977 221.554 31.652C223.194 27.6065 225.5 24.0925 228.469 21.11C231.437 18.1274 234.948 15.8092 239 14.1557C242.905 12.5622 247.168 11.7364 251.796 11.6865Z" fill="#196A7B"/>
<path fill-rule="evenodd" clip-rule="evenodd" d="M306.885 63.1064C310.112 67.3166 316.01 68.5673 320.477 65.5798L328.435 77.3305H316.431L306.885 63.1064Z" fill="#C5D9DD"/>
<path d="M172.942 11.6255H190.663C197.468 11.6255 202.819 12.9826 206.717 15.7061C210.615 18.4249 212.564 22.5981 212.564 28.2165C212.564 31.6624 211.777 34.6545 210.198 37.1927C208.62 39.7356 206.439 41.7273 203.657 43.1816C207.365 44.6314 210.337 46.6879 212.564 49.3465C214.79 52.0051 215.906 55.1498 215.906 58.7765C215.906 63.1905 214.823 66.757 212.656 69.4758C210.49 72.1947 207.675 74.1909 204.212 75.46C200.75 76.7291 197.097 77.3636 193.264 77.3636H185.973V77.3034C183.835 77.0255 179.932 75.7981 177.414 73.3016C174.433 70.3466 172.993 65.9001 172.942 63.2878V11.6255ZM182.594 49.2539V68.568H192.801C196.449 68.568 199.542 67.7853 202.078 66.2105C204.615 64.6403 205.884 62.1902 205.884 58.8692C205.884 56.4513 205.203 54.5431 203.842 53.1536C202.481 51.7642 200.75 50.7684 198.643 50.1615C196.542 49.5594 194.375 49.2539 192.149 49.2539H182.594ZM182.594 20.7825V40.0968H192.426C195.954 40.0968 198.519 39.1149 200.13 37.151C201.736 35.1872 202.541 32.8714 202.541 30.2127C202.541 26.9473 201.504 24.5619 199.435 23.0474C197.361 21.5374 194.593 20.7825 191.13 20.7825H182.594Z" fill="#196A7B"/>
<path d="M173.023 90.197H176.593C177.984 90.197 179.016 90.4139 179.691 90.8474C180.365 91.2812 180.702 91.9561 180.702 92.8724C180.702 93.4751 180.555 93.9896 180.261 94.4159C179.967 94.8421 179.58 95.1167 179.099 95.2391V95.3126C179.734 95.4889 180.194 95.783 180.478 96.1946C180.763 96.6061 180.905 97.1403 180.905 97.797C180.905 98.7719 180.556 99.5401 179.859 100.101C179.161 100.662 178.21 100.943 177.006 100.943H173.023V90.197ZM330 100.943H317.498V92.6152H320.235V98.8036H322.433V92.6152H325.1V98.8036H327.263V92.6152H330V100.943ZM313.237 100.943L312.712 99.8403H312.656C312.287 100.32 311.912 100.649 311.529 100.825C311.146 101.001 310.652 101.09 310.045 101.09C309.298 101.09 308.71 100.854 308.281 100.384C307.851 99.9136 307.637 99.2521 307.637 98.3995C307.637 97.5127 307.931 96.8524 308.519 96.4188C309.107 95.9851 309.958 95.7413 311.074 95.6874L312.397 95.6435V95.5257C312.397 94.8398 312.075 94.4969 311.431 94.4969C310.852 94.4969 310.117 94.7026 309.226 95.1142L308.435 93.2176C309.359 92.7182 310.525 92.4683 311.935 92.4683C312.952 92.4683 313.74 92.733 314.298 93.2618C314.855 93.7912 315.134 94.5312 315.134 95.4815V100.943H313.237ZM311.207 99.0611C311.538 99.0611 311.822 98.951 312.057 98.7305C312.293 98.51 312.411 98.2232 312.411 97.8702V97.2235L311.781 97.2529C310.88 97.2872 310.43 97.6354 310.43 98.2968C310.43 98.8062 310.689 99.0611 311.207 99.0611ZM305.672 100.943H303.222V94.7248C303.072 95.3568 302.903 96.0096 302.714 96.6835C302.525 97.3572 302.088 98.7767 301.402 100.943H299.54L298.721 98.2822C298.445 97.3903 298.156 96.3881 297.853 95.2758L297.699 94.7248V100.943H295.248V92.6152H298.994L299.61 94.5628C299.726 94.9354 299.887 95.527 300.093 96.3378C300.298 97.149 300.424 97.711 300.471 98.0249C300.499 97.7945 300.664 97.1428 300.967 96.0699L301.241 95.0848L302.004 92.6152H305.672V100.943ZM292.857 100.943H290.406V94.7248C290.257 95.3568 290.088 96.0096 289.899 96.6835C289.71 97.3572 289.272 98.7767 288.587 100.943H286.725L285.905 98.2822C285.63 97.3903 285.341 96.3881 285.038 95.2758L284.883 94.7248V100.943H282.433V92.6152H286.178L286.794 94.5628C286.911 94.9354 287.072 95.527 287.277 96.3378C287.483 97.149 287.609 97.711 287.655 98.0249C287.683 97.7945 287.849 97.1428 288.153 96.0699L288.425 95.0848L289.189 92.6152H292.857V100.943ZM273.944 92.6152V94.71C273.944 94.8275 273.943 94.955 273.941 95.0922C273.938 95.2291 273.907 96.1013 273.846 97.7086L277.017 92.6152H280.041V100.943H277.605V98.6863C277.605 97.8972 277.638 96.964 277.703 95.8857L274.546 100.943H271.508V92.6152H273.944ZM270.019 100.943H266.82L264.825 97.5838L262.851 100.943H259.722L263.117 95.4447L259.925 90.197H262.991L264.839 93.5193L266.617 90.197H269.774L266.533 95.6726L270.019 100.943ZM259.017 104H256.623V100.943H249.224V92.6152H251.961V98.8036H254.502V92.6152H257.239V98.8036H259.017V104ZM243.689 101.09C242.368 101.09 241.343 100.721 240.612 99.9836C239.882 99.246 239.517 98.1963 239.517 96.834C239.517 95.4276 239.855 94.3483 240.532 93.5965C241.208 92.8441 242.174 92.4683 243.43 92.4683C244.625 92.4683 245.547 92.7951 246.198 93.4493C246.849 94.1033 247.175 95.0455 247.175 96.2755V97.5544H242.282C242.301 98.0199 242.463 98.3848 242.769 98.6495C243.074 98.9142 243.491 99.0463 244.018 99.0463C244.498 99.0463 244.941 98.9985 245.344 98.9032C245.748 98.8074 246.186 98.6446 246.657 98.4143V100.48C246.228 100.71 245.784 100.869 245.327 100.957C244.87 101.046 244.324 101.09 243.689 101.09ZM243.528 94.4232C243.206 94.4232 242.936 94.53 242.719 94.7432C242.502 94.9563 242.375 95.2905 242.338 95.7462H244.69C244.681 95.3446 244.572 95.0234 244.364 94.7833C244.157 94.5432 243.878 94.4232 243.528 94.4232ZM237.461 92.6152V100.943H234.724V94.7542H232.673V100.943H229.936V92.6152H237.461ZM224.849 92.4241C224.191 92.4241 223.677 92.7072 223.309 93.273C222.94 93.8391 222.756 94.6193 222.756 95.6141C222.756 97.6816 223.505 98.7157 225.003 98.7157C225.455 98.7157 225.894 98.6495 226.319 98.5174C226.743 98.3848 227.17 98.2257 227.6 98.0395V100.494C226.746 100.891 225.78 101.09 224.702 101.09C223.157 101.09 221.973 100.619 221.149 99.6783C220.325 98.7379 219.913 97.3781 219.913 95.5993C219.913 94.487 220.113 93.5093 220.512 92.6666C220.911 91.824 221.485 91.1759 222.234 90.7227C222.983 90.2695 223.864 90.0427 224.877 90.0427C225.983 90.0427 227.04 90.2953 228.048 90.7996L227.201 93.0855C226.823 92.8995 226.445 92.7427 226.067 92.6152C225.689 92.4879 225.283 92.4241 224.849 92.4241ZM215.87 100.943L215.345 99.8403H215.289C214.92 100.32 214.544 100.649 214.161 100.825C213.779 101.001 213.284 101.09 212.677 101.09C211.931 101.09 211.343 100.854 210.914 100.384C210.484 99.9136 210.27 99.2521 210.27 98.3995C210.27 97.5127 210.563 96.8524 211.152 96.4188C211.74 95.9851 212.591 95.7413 213.706 95.6874L215.029 95.6435V95.5257C215.029 94.8398 214.708 94.4969 214.064 94.4969C213.485 94.4969 212.75 94.7026 211.858 95.1142L211.067 93.2176C211.992 92.7182 213.158 92.4683 214.567 92.4683C215.585 92.4683 216.372 92.733 216.93 93.2618C217.488 93.7912 217.767 94.5312 217.767 95.4815V100.943H215.87ZM213.84 99.0611C214.171 99.0611 214.454 98.951 214.69 98.7305C214.926 98.51 215.044 98.2232 215.044 97.8702V97.2235L214.413 97.2529C213.513 97.2872 213.062 97.6354 213.062 98.2968C213.062 98.8062 213.321 99.0611 213.84 99.0611ZM208.907 92.6152V94.7542H205.75V100.943H203.012V92.6152H208.907ZM200.62 100.943H197.883V94.7542H196.273C196.119 96.5422 195.926 97.8571 195.692 98.6973C195.459 99.5376 195.137 100.146 194.726 100.524C194.316 100.901 193.763 101.09 193.067 101.09C192.582 101.09 192.169 101.016 191.828 100.869V98.7305C191.982 98.8184 192.188 98.8626 192.444 98.8626C192.654 98.8626 192.825 98.7489 192.955 98.521C193.086 98.2932 193.201 97.9291 193.302 97.4292C193.402 96.9297 193.493 96.2878 193.575 95.5037C193.656 94.7198 193.734 93.7569 193.809 92.6152H200.62V100.943ZM190.598 96.7604C190.598 98.1226 190.25 99.185 189.552 99.9467C188.854 100.709 187.878 101.09 186.622 101.09C185.418 101.09 184.46 100.7 183.749 99.921C183.037 99.1421 182.681 98.0883 182.681 96.7604C182.681 95.4034 183.03 94.3483 183.728 93.5965C184.425 92.8441 185.404 92.4683 186.664 92.4683C187.444 92.4683 188.132 92.6421 188.729 92.9898C189.327 93.3379 189.788 93.8366 190.112 94.4858C190.436 95.1351 190.598 95.8931 190.598 96.7604ZM185.46 96.7604C185.46 97.4759 185.551 98.0211 185.733 98.3959C185.915 98.7706 186.221 98.9584 186.65 98.9584C187.075 98.9584 187.375 98.7706 187.55 98.3959C187.725 98.0211 187.812 97.4759 187.812 96.7604C187.812 96.0502 187.724 95.5135 187.546 95.151C187.369 94.7882 187.066 94.6069 186.636 94.6069C186.216 94.6069 185.915 94.7869 185.733 95.1474C185.551 95.5073 185.46 96.0453 185.46 96.7604ZM175.788 94.3202H176.621C177.018 94.3202 177.325 94.2346 177.542 94.0632C177.759 93.8915 177.867 93.637 177.867 93.2986C177.867 92.6962 177.433 92.3947 176.565 92.3947H175.788V94.3202ZM175.788 96.4446V98.7011H176.761C177.624 98.7011 178.056 98.3185 178.056 97.5544C178.056 97.1968 177.941 96.9223 177.71 96.7313C177.479 96.5399 177.144 96.4446 176.705 96.4446H175.788Z" fill="white"/>
<path fill-rule="evenodd" clip-rule="evenodd" d="M24.2967 55.9932L25.9805 29.6026C23.713 29.7871 21.5976 30.0779 19.6882 30.4557L21.2977 55.9932H6.36838H5.05786V58.5314H5.08112V91.2158V91.2778H6.36838H7.61319V91.2158V58.5314H19.2373V70.0088H21.2927V91.2158V91.2916H22.0446H23.5222H23.8249V91.2158V70.0088H25.8757V58.5314H36.8684H36.9766V66.308H35.0416V80.5876H36.9766V91.2158V91.2916H39.3647H39.5088V91.2158V80.5876H41.666V66.308H39.5088V58.5314H51.9801V91.2158V91.2778H53.8274H54.5122V91.2158V58.5314H67.2019H92.7436H123.185L123.378 55.9932H67.835H53.8274V51.5398V48.8186V36.2435H53.8319L53.8274 36.0723V35.9101H53.8041C53.3071 32.7115 45.685 30.0253 35.4207 29.4768L37.1125 55.9932H24.2967Z" fill="#669CA7"/>
<path fill-rule="evenodd" clip-rule="evenodd" d="M37.1122 55.9929L35.4207 29.4765L35.084 24.2055H26.3246L25.9802 29.6023L24.2967 55.9929H37.1122ZM123.185 58.5311L122.048 73.4459H128.374V71.3246H130.194V73.4459H134.383C138.702 73.4459 142.211 76.9521 142.211 81.2782C142.211 85.1411 139.401 88.3602 135.716 88.9947V91.0512H133.476V89.1105H120.855L120.695 91.2155H104.607H92.8404H83.1409H79.844H70.1445H54.5122H51.9801H39.5088H36.9766H25.004L36.8684 58.5311H25.8757V70.0085H23.8249V91.2155H23.5171H21.2927H7.61319H5.08112H0.518039L0.505308 91.4555L0 100.983H149.428L148.523 91.4028H148.527L141.563 0H127.644L124.501 41.2477L123.378 55.9929L123.185 58.5311Z" fill="#196A7B"/>
<path fill-rule="evenodd" clip-rule="evenodd" d="M114.5 73.4463C110.177 73.4463 106.672 76.9525 106.672 81.2786C106.672 85.1415 109.478 88.3606 113.163 88.9951V91.0516H115.403V89.1109H120.855H133.476V91.0516H135.716V88.9951C139.401 88.3606 142.211 85.1415 142.211 81.2786C142.211 76.9525 138.702 73.4463 134.383 73.4463H130.194V71.325H128.374V73.4463H122.048H121.079L121.676 71.325H115.936L116.533 73.4463H114.5ZM36.8685 58.5315L25.004 91.2159H36.9766V80.5877H35.0416V66.3081H36.9766V58.5315H36.8685ZM41.666 80.5877H39.5088V91.2159H51.9801V58.5315H39.5088V66.3081H41.666V80.5877ZM54.5122 58.5315V91.2159H70.1445V80.2624H72.2048V77.3509H71.3644V78.5185H70.7838V75.6201H71.3644V76.7874H72.2048V73.8023H70.0403V72.0385H72.2048V69.6164H70.0403V67.8525H72.2048V65.4306H70.9018V63.6666H79.0937V65.4306H77.789V67.8525H79.9501V69.6164H77.789V72.0385H79.9501V73.8023H77.789V80.2624H79.8441V91.2159H83.1409V86.9037H86.1195V80.4437H84.2506V78.6798H86.1195V76.2577H84.2506V74.4939H86.1195V72.3453H84.9282V70.5813H91.1087V72.3453H89.8606V74.4939H91.7274V76.2577H89.8606V78.6798H91.7274V80.4437H89.8606V83.4288H91.5188V82.2614H92.0994V85.1599H91.5188V83.9922H89.8606V86.9037H92.8405V91.2159H104.607L92.7436 58.5315H67.2019H54.5122Z" fill="#343434"/>
<path fill-rule="evenodd" clip-rule="evenodd" d="M188.57 77.3995C184.747 77.4203 179.789 75.8375 176.964 72.8208C174.139 69.8041 172.946 63.2742 172.946 63.4388L172.939 77.4013L188.57 77.3995Z" fill="white"/>
</svg>
