<svg width="171" height="54" viewBox="0 0 171 54" fill="none" xmlns="http://www.w3.org/2000/svg">
<g clip-path="url(#clip0)">
<path fill-rule="evenodd" clip-rule="evenodd" d="M138.874 40.1504L144.894 40.1502L154.472 25.9803C155.991 28.2453 157.509 30.5104 159.028 32.7754L159.124 32.9184C159.846 33.9969 162.885 36.1227 166.065 34.051L157.539 21.4419L167.935 6.06201L161.718 6.0621L154.462 16.8891L147.145 6.06406L141.125 6.06381L151.421 21.4275L138.874 40.1504Z" fill="#196A7B"/>
<path fill-rule="evenodd" clip-rule="evenodd" d="M36.0777 25.3481H27.8922V26.7611H35.7262L36.0777 25.3481Z" fill="#196A7B"/>
<path fill-rule="evenodd" clip-rule="evenodd" d="M46.5641 47.5201H44.6256H43.0821V45.1229H44.6256V41.7686H43.6571V40.8528H44.6256V39.5952H43.6571V38.6793H44.6256V37.5637H44.0082V36.6478H47.2109V37.5637H46.5641V38.6793H47.5314V39.5952H46.5641V40.8528H47.5314V41.7686H46.5641V43.3186H47.4234V42.7124H47.7242V44.2174H47.4234V43.6111H46.5641V45.1229H48.1082V47.5201H46.5641ZM12.194 47.4865H0.25769L3.24264 0.0273438H9.20912L12.194 47.4865ZM37.0569 21.417L36.0776 25.3479L35.7262 26.7609L35.1509 29.0732H63.9323L64.5144 21.417H37.0569ZM63.8323 30.3911H48.0581L54.2057 47.3619H62.5418L62.6248 46.2689H59.7999V47.2766H58.6388V46.2088C56.7294 45.8793 55.2757 44.2079 55.2757 42.2021C55.2757 39.9559 57.0916 38.1353 59.332 38.1353H60.3851L60.0757 37.0339H63.0501L62.7407 38.1353H63.2433L63.8323 30.3911ZM40.3088 41.6745V38.3202H41.4287V37.4044H40.3088V36.1467H41.4287V35.2309H40.3088V33.9734H40.9849V33.0575H36.74V33.9734H37.4152V35.2309H36.2936V36.1467H37.4152V37.4044H36.2936V38.3202H37.4152V39.8702H36.9797V39.264H36.6789V40.769H36.9797V40.1627H37.4152V41.6745H36.3476V47.5201H41.3737V41.6745H40.3088Z" fill="#343434"/>
<path fill-rule="evenodd" clip-rule="evenodd" d="M130.657 6.06569L130.773 6.06201C133.54 6.11068 134.775 6.39916 136.062 6.73729C137.349 7.07542 138.254 7.42726 138.889 7.90747V13.2837C137.985 12.6839 136.841 12.1134 135.514 11.5706V11.105C135.506 8.37992 133.36 6.15387 130.657 6.06569Z" fill="#669CA7"/>
<path fill-rule="evenodd" clip-rule="evenodd" d="M135.513 34.8428L135.86 34.7177C137.225 34.197 137.994 33.6304 138.86 32.9551V38.2836C138.744 38.4031 138.494 38.543 137.475 39.0195C136.475 39.4942 135.975 39.5825 135.475 39.6856C134.09 39.9689 132.628 40.1768 131.032 40.1455L130.724 40.1364C133.378 40.0094 135.513 37.7996 135.513 35.0986V34.8428Z" fill="#C5D9DD"/>
<path fill-rule="evenodd" clip-rule="evenodd" d="M130.476 6.06788L130.632 6.06445C133.34 6.14178 135.514 8.37199 135.514 11.1071V11.5703L135.433 11.5358C134.07 10.9838 132.556 10.7078 130.889 10.7078L130.476 10.7209C128.425 10.7791 126.545 11.3289 124.831 12.3638C123.003 13.4678 121.538 14.955 120.431 16.8257C119.325 18.6962 118.772 20.7968 118.772 23.1274C118.772 25.4886 119.277 27.6044 120.288 29.4751C121.297 31.3456 122.731 32.8176 124.59 33.8909C126.287 34.8702 128.251 35.4027 130.476 35.4831L131.129 35.5008C132.774 35.5008 134.237 35.2823 135.514 34.8427V35.0999C135.514 37.8008 133.395 40.0093 130.736 40.1374L130.476 40.1293C127.98 40.0515 125.727 39.5956 123.726 38.7667C121.578 37.8773 119.743 36.6586 118.219 35.1099C116.697 33.5613 115.536 31.7826 114.734 29.774C113.933 27.7654 113.531 25.6267 113.531 23.3574C113.531 20.8428 113.957 18.5352 114.805 16.4346C115.655 14.334 116.85 12.5095 118.388 10.9608C119.927 9.41217 121.746 8.20852 123.845 7.34993C125.869 6.52253 128.078 6.09377 130.476 6.06788Z" fill="#196A7B"/>
<path fill-rule="evenodd" clip-rule="evenodd" d="M159.022 32.7666C160.694 34.9526 163.75 35.602 166.065 34.0508L170.189 40.1522H163.969L159.022 32.7666Z" fill="#C5D9DD"/>
<path d="M89.6154 6.03613H98.7979C102.324 6.03613 105.097 6.7408 107.117 8.15489C109.137 9.5666 110.147 11.7335 110.147 14.6507C110.147 16.4399 109.739 17.9935 108.921 19.3114C108.103 20.6318 106.973 21.6659 105.531 22.421C107.453 23.1738 108.993 24.2416 110.147 25.622C111.301 27.0025 111.879 28.6353 111.879 30.5184C111.879 32.8103 111.317 34.6621 110.195 36.0738C109.072 37.4855 107.614 38.522 105.819 39.181C104.025 39.8399 102.132 40.1694 100.146 40.1694H96.3679V40.1381C95.2597 39.9938 93.2375 39.3565 91.9325 38.0603C90.3878 36.5259 89.6417 34.2172 89.6154 32.8608V6.03613ZM94.6168 25.5739V35.6024H99.9061C101.796 35.6024 103.399 35.196 104.713 34.3783C106.028 33.563 106.685 32.2909 106.685 30.5665C106.685 29.3111 106.333 28.3203 105.627 27.5988C104.922 26.8774 104.025 26.3603 102.933 26.0452C101.844 25.7326 100.722 25.5739 99.568 25.5739H94.6168ZM94.6168 10.7908V20.8193H99.7119C101.54 20.8193 102.869 20.3095 103.704 19.2898C104.536 18.2701 104.953 17.0676 104.953 15.6872C104.953 13.9917 104.416 12.7531 103.344 11.9667C102.269 11.1827 100.835 10.7908 99.0402 10.7908H94.6168Z" fill="#196A7B"/>
<path d="M89.6573 46.833H91.5073C92.2281 46.833 92.7631 46.9456 93.1124 47.1708C93.4619 47.396 93.6367 47.7464 93.6367 48.2222C93.6367 48.5351 93.5603 48.8023 93.4081 49.0236C93.2557 49.2449 93.0551 49.3875 92.8059 49.451V49.4892C93.1348 49.5808 93.373 49.7335 93.5206 49.9471C93.668 50.1608 93.7419 50.4382 93.7419 50.7792C93.7419 51.2854 93.561 51.6843 93.1996 51.9754C92.838 52.2668 92.3452 52.4126 91.7213 52.4126H89.6573V46.833ZM171 52.4126H164.522V48.0886H165.94V51.3019H167.079V48.0886H168.461V51.3019H169.582V48.0886H171V52.4126ZM162.314 52.4126L162.042 51.8401H162.012C161.821 52.0893 161.627 52.2598 161.429 52.3514C161.23 52.443 160.974 52.4889 160.66 52.4889C160.273 52.4889 159.968 52.3667 159.745 52.1224C159.523 51.8782 159.412 51.5347 159.412 51.092C159.412 50.6316 159.564 50.2887 159.869 50.0636C160.173 49.8384 160.615 49.7118 161.193 49.6838L161.878 49.661V49.5999C161.878 49.2437 161.711 49.0657 161.378 49.0657C161.078 49.0657 160.697 49.1725 160.235 49.3862L159.825 48.4014C160.304 48.1421 160.909 48.0124 161.639 48.0124C162.166 48.0124 162.574 48.1498 162.863 48.4244C163.152 48.6992 163.297 49.0835 163.297 49.5769V52.4126H162.314ZM161.262 51.4355C161.433 51.4355 161.58 51.3784 161.702 51.2639C161.825 51.1494 161.886 51.0005 161.886 50.8172V50.4814L161.559 50.4967C161.092 50.5145 160.859 50.6953 160.859 51.0387C160.859 51.3032 160.993 51.4355 161.262 51.4355ZM158.394 52.4126H157.124V49.184C157.047 49.5122 156.959 49.8511 156.861 50.201C156.763 50.5508 156.536 51.2879 156.181 52.4126H155.216L154.792 51.0311C154.649 50.568 154.499 50.0477 154.342 49.4701L154.262 49.184V52.4126H152.992V48.0886H154.933L155.252 49.0999C155.313 49.2933 155.396 49.6005 155.503 50.0215C155.609 50.4427 155.674 50.7345 155.698 50.8975C155.713 50.7779 155.799 50.4395 155.956 49.8824L156.097 49.3709L156.493 48.0886H158.394V52.4126ZM151.753 52.4126H150.483V49.184C150.406 49.5122 150.318 49.8511 150.221 50.201C150.122 50.5508 149.896 51.2879 149.54 52.4126H148.575L148.151 51.0311C148.008 50.568 147.858 50.0477 147.701 49.4701L147.621 49.184V52.4126H146.352V48.0886H148.292L148.612 49.0999C148.672 49.2933 148.756 49.6005 148.862 50.0215C148.968 50.4427 149.034 50.7345 149.058 50.8975C149.072 50.7779 149.158 50.4395 149.315 49.8824L149.457 49.3709L149.852 48.0886H151.753V52.4126ZM141.953 48.0886V49.1763C141.953 49.2373 141.952 49.3036 141.951 49.3748C141.95 49.4459 141.934 49.8987 141.902 50.7333L143.545 48.0886H145.112V52.4126H143.85V51.241C143.85 50.8312 143.867 50.3467 143.901 49.7868L142.265 52.4126H140.69V48.0886H141.953ZM139.919 52.4126H138.261L137.228 50.6685L136.205 52.4126H134.583L136.343 49.5578L134.688 46.833H136.277L137.235 48.5581L138.156 46.833H139.792L138.113 49.6761L139.919 52.4126ZM134.218 54.0001H132.977V52.4126H129.143V48.0886H130.562V51.3019H131.878V48.0886H133.297V51.3019H134.218V54.0001ZM126.275 52.4889C125.591 52.4889 125.059 52.2975 124.681 51.9145C124.302 51.5316 124.113 50.9865 124.113 50.2792C124.113 49.5489 124.288 48.9885 124.639 48.5981C124.99 48.2075 125.49 48.0124 126.141 48.0124C126.76 48.0124 127.238 48.182 127.575 48.5217C127.913 48.8613 128.082 49.3505 128.082 49.9892V50.6532H125.546C125.556 50.8949 125.64 51.0844 125.798 51.2218C125.957 51.3593 126.172 51.4279 126.446 51.4279C126.695 51.4279 126.924 51.403 127.133 51.3536C127.342 51.3038 127.569 51.2193 127.813 51.0997V52.1721C127.591 52.2918 127.361 52.3744 127.124 52.4202C126.887 52.4659 126.604 52.4889 126.275 52.4889ZM126.192 49.0274C126.025 49.0274 125.885 49.0828 125.773 49.1936C125.66 49.3042 125.594 49.4777 125.575 49.7143H126.794C126.789 49.5058 126.733 49.3391 126.625 49.2144C126.518 49.0897 126.373 49.0274 126.192 49.0274ZM123.048 48.0886V52.4126H121.63V49.1993H120.567V52.4126H119.148V48.0886H123.048ZM116.513 47.9894C116.172 47.9894 115.905 48.1364 115.714 48.4302C115.523 48.7241 115.428 49.1292 115.428 49.6458C115.428 50.7193 115.816 51.2562 116.592 51.2562C116.827 51.2562 117.054 51.2218 117.274 51.1533C117.494 51.0844 117.716 51.0018 117.938 50.9051V52.1798C117.496 52.3858 116.995 52.4889 116.436 52.4889C115.636 52.4889 115.022 52.2446 114.595 51.756C114.169 51.2677 113.955 50.5617 113.955 49.6381C113.955 49.0606 114.059 48.5529 114.265 48.1153C114.472 47.6778 114.77 47.3413 115.158 47.106C115.546 46.8707 116.002 46.7529 116.527 46.7529C117.1 46.7529 117.648 46.8841 118.17 47.1459L117.731 48.3329C117.536 48.2363 117.339 48.1548 117.144 48.0886C116.948 48.0226 116.737 47.9894 116.513 47.9894ZM111.86 52.4126L111.588 51.8401H111.559C111.368 52.0893 111.173 52.2598 110.975 52.3514C110.776 52.443 110.52 52.4889 110.206 52.4889C109.819 52.4889 109.514 52.3667 109.292 52.1224C109.069 51.8782 108.958 51.5347 108.958 51.092C108.958 50.6316 109.11 50.2887 109.415 50.0636C109.72 49.8384 110.161 49.7118 110.739 49.6838L111.424 49.661V49.5999C111.424 49.2437 111.258 49.0657 110.924 49.0657C110.624 49.0657 110.243 49.1725 109.781 49.3862L109.371 48.4014C109.85 48.1421 110.455 48.0124 111.185 48.0124C111.712 48.0124 112.12 48.1498 112.409 48.4244C112.698 48.6992 112.843 49.0835 112.843 49.5769V52.4126H111.86ZM110.808 51.4355C110.979 51.4355 111.126 51.3784 111.248 51.2639C111.371 51.1494 111.432 51.0005 111.432 50.8172V50.4814L111.105 50.4967C110.638 50.5145 110.405 50.6953 110.405 51.0387C110.405 51.3032 110.539 51.4355 110.808 51.4355ZM108.252 48.0886V49.1993H106.616V52.4126H105.197V48.0886H108.252ZM103.958 52.4126H102.54V49.1993H101.705C101.625 50.1277 101.525 50.8104 101.404 51.2467C101.283 51.6829 101.116 51.999 100.904 52.1951C100.691 52.3909 100.404 52.4889 100.044 52.4889C99.7924 52.4889 99.5785 52.4506 99.4018 52.3744V51.2639C99.4817 51.3095 99.5881 51.3325 99.7211 51.3325C99.83 51.3325 99.9182 51.2734 99.9858 51.1551C100.054 51.0368 100.113 50.8478 100.165 50.5882C100.217 50.3289 100.265 49.9956 100.307 49.5884C100.349 49.1814 100.39 48.6814 100.428 48.0886H103.958V52.4126ZM98.7646 50.2409C98.7646 50.9482 98.5839 51.4999 98.2223 51.8954C97.8607 52.2911 97.3548 52.4889 96.7043 52.4889C96.0804 52.4889 95.584 52.2866 95.2151 51.882C94.8464 51.4776 94.6621 50.9304 94.6621 50.2409C94.6621 49.5363 94.8428 48.9885 95.2044 48.5981C95.5658 48.2075 96.0732 48.0124 96.7261 48.0124C97.1299 48.0124 97.4866 48.1026 97.7961 48.2831C98.1056 48.4639 98.3445 48.7228 98.5124 49.0599C98.6806 49.397 98.7646 49.7906 98.7646 50.2409ZM96.102 50.2409C96.102 50.6125 96.1492 50.8956 96.2435 51.0901C96.3378 51.2847 96.4963 51.3822 96.7188 51.3822C96.9389 51.3822 97.0942 51.2847 97.1848 51.0901C97.2756 50.8956 97.3209 50.6125 97.3209 50.2409C97.3209 49.8722 97.275 49.5935 97.183 49.4053C97.0911 49.2169 96.934 49.1228 96.7115 49.1228C96.4939 49.1228 96.3378 49.2163 96.2435 49.4034C96.1492 49.5903 96.102 49.8697 96.102 50.2409ZM91.0902 48.9739H91.5219C91.7273 48.9739 91.8865 48.9295 91.9989 48.8405C92.1114 48.7513 92.1675 48.6192 92.1675 48.4435C92.1675 48.1307 91.9426 47.9741 91.4928 47.9741H91.0902V48.9739ZM91.0902 50.077V51.2486H91.5944C92.0417 51.2486 92.2655 51.05 92.2655 50.6532C92.2655 50.4675 92.2057 50.325 92.0859 50.2258C91.9662 50.1265 91.7926 50.077 91.5654 50.077H91.0902Z" fill="#343434"/>
<path fill-rule="evenodd" clip-rule="evenodd" d="M12.5901 29.0733L13.4626 15.3705C12.2876 15.4663 11.1914 15.6173 10.202 15.8135L11.036 29.0733H3.29994H2.62085V30.3912H2.6329V47.362V47.3941H3.29994H3.94497V47.362V30.3912H9.96838V36.3506H11.0334V47.362V47.4013H11.4231H12.1887H12.3456V47.362V36.3506H13.4083V30.3912H19.1045H19.1605V34.4291H18.1579V41.8435H19.1605V47.362V47.4013H20.398H20.4727V47.362V41.8435H21.5905V34.4291H20.4727V30.3912H26.9351V47.362V47.3941H27.8923H28.2472V47.362V30.3912H34.8228H48.058H63.8322L63.9324 29.0733H35.1508H27.8923V26.761V25.348V18.8187H27.8947L27.8923 18.7297V18.6456H27.8803C27.6227 16.9847 23.6731 15.59 18.3543 15.3052L19.231 29.0733H12.5901Z" fill="#669CA7"/>
<path fill-rule="evenodd" clip-rule="evenodd" d="M19.2309 29.0733L18.3544 15.3051L18.1799 12.5682H13.6409L13.4625 15.3704L12.5901 29.0733H19.2309ZM63.8321 30.3911L63.2432 38.1354H66.5212V37.0339H67.464V38.1354H69.6349C71.8729 38.1354 73.6912 39.9559 73.6912 42.2021C73.6912 44.2079 72.2352 45.8793 70.3257 46.2088V47.2766H69.1647V46.2689H62.6248L62.5418 47.3619H54.2057H48.1082H43.0821H41.3737H36.3476H28.2472H26.9351H20.4727H19.1606H12.9566L19.1046 30.3911H13.4083V36.3506H12.3456V47.3619H12.1862H11.0335H3.94501H2.63294H0.268439L0.261841 47.4865L0 52.4333H77.431L76.9617 47.4592H76.9637L73.3554 0H66.1428L64.5144 21.4171L63.9323 29.0733L63.8321 30.3911Z" fill="#196A7B"/>
<path fill-rule="evenodd" clip-rule="evenodd" d="M59.3321 38.1353C57.0916 38.1353 55.2757 39.9559 55.2757 42.2021C55.2757 44.2078 56.7294 45.8793 58.6388 46.2088V47.2765H59.7999V46.2689H62.6249H69.1647V47.2765H70.3257V46.2088C72.2352 45.8793 73.6913 44.2078 73.6913 42.2021C73.6913 39.9559 71.8729 38.1353 69.6349 38.1353H67.464V37.0339H66.5213V38.1353H63.2433H62.7408L63.0502 37.0339H60.0757L60.3852 38.1353H59.3321ZM19.1046 30.3911L12.9567 47.3619H19.1606V41.8434H18.158V34.429H19.1606V30.3911H19.1046ZM21.5906 41.8434H20.4728V47.3619H26.9352V30.3911H20.4728V34.429H21.5906V41.8434ZM28.2473 30.3911V47.3619H36.3477V41.6744H37.4152V40.1627H36.9798V40.769H36.6789V39.264H36.9798V39.8701H37.4152V38.3202H36.2937V37.4044H37.4152V36.1467H36.2937V35.2309H37.4152V33.9733H36.7401V33.0574H40.985V33.9733H40.3089V35.2309H41.4287V36.1467H40.3089V37.4044H41.4287V38.3202H40.3089V41.6744H41.3738V47.3619H43.0822V45.1228H44.6256V41.7686H43.6572V40.8528H44.6256V39.5951H43.6572V38.6793H44.6256V37.5637H44.0083V36.6478H47.2109V37.5637H46.5642V38.6793H47.5315V39.5951H46.5642V40.8528H47.5315V41.7686H46.5642V43.3185H47.4234V42.7124H47.7243V44.2174H47.4234V43.6111H46.5642V45.1228H48.1083V47.3619H54.2057L48.0581 30.3911H34.8228H28.2473Z" fill="white"/>
<path fill-rule="evenodd" clip-rule="evenodd" d="M97.7136 40.1884C95.7327 40.1992 93.1632 39.3773 91.6995 37.811C90.2358 36.2446 89.6177 32.8541 89.6177 32.9396L89.6138 40.1893L97.7136 40.1884Z" fill="#343434"/>
</g>
<defs>
<clipPath id="clip0">
<rect width="171" height="54" fill="white"/>
</clipPath>
</defs>
</svg>
