<svg width="12" height="13" viewBox="0 0 12 13" fill="none" xmlns="http://www.w3.org/2000/svg">
<path d="M8.25 0.666504H3.75C1.67925 0.666504 0 2.34575 0 4.4165V8.9165C0 10.9873 1.67925 12.6665 3.75 12.6665H8.25C10.3208 12.6665 12 10.9873 12 8.9165V4.4165C12 2.34575 10.3208 0.666504 8.25 0.666504ZM10.875 8.9165C10.875 10.364 9.6975 11.5415 8.25 11.5415H3.75C2.3025 11.5415 1.125 10.364 1.125 8.9165V4.4165C1.125 2.969 2.3025 1.7915 3.75 1.7915H8.25C9.6975 1.7915 10.875 2.969 10.875 4.4165V8.9165Z" fill="white"/>
<path d="M6 3.6665C4.34325 3.6665 3 5.00975 3 6.6665C3 8.32325 4.34325 9.6665 6 9.6665C7.65675 9.6665 9 8.32325 9 6.6665C9 5.00975 7.65675 3.6665 6 3.6665ZM6 8.5415C4.9665 8.5415 4.125 7.7 4.125 6.6665C4.125 5.63225 4.9665 4.7915 6 4.7915C7.0335 4.7915 7.875 5.63225 7.875 6.6665C7.875 7.7 7.0335 8.5415 6 8.5415Z" fill="white"/>
<path d="M9.22519 3.84124C9.44597 3.84124 9.62494 3.66227 9.62494 3.4415C9.62494 3.22072 9.44597 3.04175 9.22519 3.04175C9.00441 3.04175 8.82544 3.22072 8.82544 3.4415C8.82544 3.66227 9.00441 3.84124 9.22519 3.84124Z" fill="white"/>
</svg>
