<svg width="12" height="10" viewBox="0 0 12 10" fill="none" xmlns="http://www.w3.org/2000/svg">
<path d="M12 1.33931C11.5537 1.53506 11.0782 1.66481 10.5825 1.72781C11.0925 1.42331 11.4818 0.944809 11.6648 0.368059C11.1893 0.651559 10.6642 0.851809 10.1047 0.963559C9.65325 0.482809 9.00975 0.185059 8.30775 0.185059C6.94575 0.185059 5.84925 1.29056 5.84925 2.64581C5.84925 2.84081 5.86575 3.02831 5.90625 3.20681C3.861 3.10706 2.05125 2.12681 0.8355 0.633559C0.62325 1.00181 0.49875 1.42331 0.49875 1.87706C0.49875 2.72906 0.9375 3.48431 1.5915 3.92156C1.19625 3.91406 0.8085 3.79931 0.48 3.61856C0.48 3.62606 0.48 3.63581 0.48 3.64556C0.48 4.84106 1.33275 5.83406 2.451 6.06281C2.25075 6.11756 2.0325 6.14381 1.806 6.14381C1.6485 6.14381 1.4895 6.13481 1.34025 6.10181C1.659 7.07606 2.5635 7.79231 3.639 7.81556C2.802 8.47031 1.73925 8.86481 0.58875 8.86481C0.387 8.86481 0.1935 8.85581 0 8.83106C1.08975 9.53381 2.38125 9.93506 3.774 9.93506C8.301 9.93506 10.776 6.18506 10.776 2.93456C10.776 2.82581 10.7722 2.72081 10.767 2.61656C11.2552 2.27006 11.6655 1.83731 12 1.33931Z" fill="white"/>
</svg>
