<svg width="8" height="14" viewBox="0 0 8 14" fill="none" xmlns="http://www.w3.org/2000/svg">
<path d="M6.93722 0.00277422L5.20819 0C3.26568 0 2.01034 1.28793 2.01034 3.28135V4.79427H0.271874C0.12165 4.79427 0 4.91606 0 5.06629V7.25834C0 7.40856 0.121789 7.53021 0.271874 7.53021H2.01034V13.0615C2.01034 13.2117 2.13199 13.3333 2.28222 13.3333H4.55042C4.70065 13.3333 4.8223 13.2115 4.8223 13.0615V7.53021H6.85497C7.00519 7.53021 7.12684 7.40856 7.12684 7.25834L7.12768 5.06629C7.12768 4.99416 7.09896 4.92508 7.04806 4.87403C6.99715 4.82299 6.92779 4.79427 6.85566 4.79427H4.8223V3.51175C4.8223 2.89532 4.96919 2.58239 5.77219 2.58239L6.93695 2.58197C7.08703 2.58197 7.20868 2.46018 7.20868 2.3101V0.274648C7.20868 0.124701 7.08717 0.00305165 6.93722 0.00277422Z" fill="white"/>
</svg>
