<svg width="12" height="8" viewBox="0 0 12 8" fill="none" xmlns="http://www.w3.org/2000/svg">
<path fill-rule="evenodd" clip-rule="evenodd" d="M10.3277 4.65147C10.7258 5.0401 11.1459 5.40574 11.5029 5.83357C11.6606 6.02368 11.8099 6.21987 11.9241 6.44051C12.086 6.75415 11.9394 7.09929 11.6582 7.11802L9.90998 7.11723C9.4591 7.15465 9.0994 6.97313 8.79696 6.66485C8.55491 6.41831 8.33077 6.15592 8.09803 5.90107C8.00262 5.7969 7.90275 5.69888 7.78345 5.62141C7.5448 5.4665 7.33765 5.51393 7.20127 5.76284C7.06237 6.016 7.03086 6.29632 7.01722 6.57846C6.99849 6.99012 6.87406 7.09835 6.46055 7.11719C5.57684 7.15887 4.73814 7.02517 3.95903 6.57937C3.27213 6.18636 2.73947 5.63154 2.27585 5.00343C1.37317 3.78037 0.681895 2.43642 0.0606041 1.05481C-0.0792435 0.743537 0.0230301 0.576446 0.366479 0.570531C0.93679 0.559452 1.50702 0.560241 2.07801 0.569743C2.3098 0.573134 2.46325 0.706081 2.55275 0.925059C2.8613 1.68375 3.23885 2.40558 3.71277 3.07466C3.83897 3.25279 3.96766 3.43092 4.15092 3.5563C4.35365 3.69512 4.50801 3.64911 4.60338 3.42327C4.6639 3.28008 4.6904 3.12584 4.70404 2.97247C4.74922 2.44481 4.75518 1.91807 4.67593 1.39227C4.62728 1.06412 4.44244 0.851686 4.115 0.789588C3.94791 0.757928 3.97279 0.695752 4.05369 0.600378C4.19421 0.435888 4.32637 0.333496 4.58982 0.333496H6.56555C6.87659 0.394884 6.94566 0.534613 6.98824 0.847585L6.98994 3.04221C6.98655 3.16337 7.05046 3.52291 7.26869 3.6031C7.44335 3.66019 7.55848 3.52046 7.66327 3.40971C8.13632 2.90765 8.47393 2.31431 8.77555 1.69992C8.9094 1.42976 9.02449 1.1492 9.13603 0.868876C9.21867 0.660859 9.34834 0.558506 9.58266 0.56304L11.4842 0.564736C11.5406 0.564736 11.5976 0.565564 11.6522 0.574908C11.9726 0.629514 12.0604 0.767351 11.9615 1.08024C11.8056 1.57115 11.5022 1.98024 11.2055 2.39123C10.8884 2.83002 10.5493 3.25378 10.2348 3.69516C9.94586 4.09823 9.96881 4.30139 10.3277 4.65147Z" fill="white"/>
</svg>
