<svg width="15" height="10" viewBox="0 0 15 10" fill="none" xmlns="http://www.w3.org/2000/svg">
<path d="M1.15376 0C1.0006 0 0.854544 0.0304232 0.721062 0.0841349L7.15741 5.81734C7.38176 6.0174 7.6307 6.01719 7.85453 5.81734L14.2788 0.0841349C14.1454 0.0304232 13.9993 0 13.8461 0H1.15376ZM0.0119232 0.991578C0.00461547 1.04416 0 1.09922 0 1.15385V8.8462C0 9.004 0.0332888 9.15416 0.0901545 9.29091L4.53128 5.02407L0.0119232 0.991578ZM14.988 0.991578L10.4807 5.01807L14.9159 9.2849C14.9709 9.15001 15 9.00133 15 8.8462V1.15385C15 1.09922 14.9951 1.04416 14.988 0.991578ZM9.61535 5.7933L8.62377 6.68273C7.99338 7.24565 7.01849 7.24471 6.38818 6.68273L5.39657 5.7993L1.02155 9.99404C1.0643 9.99885 1.1097 10 1.15376 10H13.8461C13.8881 10 13.9315 9.99808 13.9723 9.99404L9.61535 5.7933Z" fill="white"/>
</svg>
