<svg width="17" height="17" viewBox="0 0 17 17" fill="none" xmlns="http://www.w3.org/2000/svg">
<path fill-rule="evenodd" clip-rule="evenodd" d="M9.96868 9.77612C11.863 7.92246 11.863 4.91708 9.96868 3.06342C8.07434 1.20976 5.00302 1.20976 3.10869 3.06342C1.21436 4.91708 1.21436 7.92246 3.10869 9.77612C5.00302 11.6298 8.07434 11.6298 9.96868 9.77612ZM10.4551 10.2521C12.6181 8.13558 12.6181 4.70397 10.4551 2.58741C8.29213 0.470862 4.78523 0.470862 2.62224 2.58741C0.459252 4.70397 0.459252 8.13558 2.62224 10.2521C4.78523 12.3687 8.29213 12.3687 10.4551 10.2521Z" fill="white"/>
<path fill-rule="evenodd" clip-rule="evenodd" d="M9.97963 10.2573L10.4808 9.79612L16 15.5388L15.4989 16L9.97963 10.2573Z" fill="white"/>
<path fill-rule="evenodd" clip-rule="evenodd" d="M9.96868 9.77612C11.863 7.92246 11.863 4.91708 9.96868 3.06342C8.07434 1.20976 5.00302 1.20976 3.10869 3.06342C1.21436 4.91708 1.21436 7.92246 3.10869 9.77612C5.00302 11.6298 8.07434 11.6298 9.96868 9.77612ZM10.4551 10.2521C12.6181 8.13558 12.6181 4.70397 10.4551 2.58741C8.29213 0.470862 4.78523 0.470862 2.62224 2.58741C0.459252 4.70397 0.459252 8.13558 2.62224 10.2521C4.78523 12.3687 8.29213 12.3687 10.4551 10.2521Z" stroke="white"/>
<path fill-rule="evenodd" clip-rule="evenodd" d="M9.97963 10.2573L10.4808 9.79612L16 15.5388L15.4989 16L9.97963 10.2573Z" stroke="white"/>
</svg>
